# xmcd CD database file
# Copyright (C) 1993-1996 Ti Kan
#
# Track frame offsets:
# 150
# 13617
# 25522
# 47645
# 65252
# 78550
# 95990
# 114260
# 127902
# 144260
#
# Disc length: 2152 seconds
#
# Revision: 0
# Processed by: cddbd v1.4b41PL1 Copyright (c) Steve Scherf et al.
# Submitted via: inCDius 1.1b5
#
DISCID=7608660a
DTITLE=Barbara Fairchild - Stories
DYEAR=1900
DGENRE=
TTITLE0=Comfort Creek
TTITLE1=Purer Than Gold
TTITLE2=Broken Believer
TTITLE3=Love Before You Leap
TTITLE4=I'm Goin'Through It (But I'm Goin' Through It) 
TTITLE5=Stories
TTITLE6=Until The Last Child Has Come Home
TTITLE7=He's A Mighty Good Friend
TTITLE8=Jezebel
TTITLE9=Casting Stones
EXTD=
EXTT0=
EXTT1=
EXTT2=
EXTT3=
EXTT4=
EXTT5=
EXTT6=
EXTT7=
EXTT8=
EXTT9=
PLAYORDER=
